<svg width="16" height="16" viewBox="0 0 16 16" fill="none" xmlns="http://www.w3.org/2000/svg">
<g clip-path="url(#clip0_2_206)">
<path d="M2.866 14.85C2.788 15.294 3.226 15.641 3.612 15.443L8.002 13.187L12.391 15.443C12.777 15.641 13.215 15.294 13.137 14.851L12.307 10.121L15.829 6.76501C16.159 6.45101 15.989 5.87701 15.547 5.81501L10.649 5.11901L8.465 0.792015C8.42339 0.704303 8.35775 0.630198 8.27571 0.578307C8.19366 0.526416 8.09857 0.498871 8.0015 0.498871C7.90442 0.498871 7.80933 0.526416 7.72729 0.578307C7.64524 0.630198 7.5796 0.704303 7.538 0.792015L5.354 5.12001L0.455996 5.81601C0.0149962 5.87801 -0.156004 6.45201 0.172996 6.76601L3.696 10.122L2.866 14.852V14.85ZM7.771 12.083L4.085 13.977L4.779 10.02C4.79525 9.92893 4.78889 9.83524 4.76047 9.74719C4.73205 9.65913 4.68244 9.57941 4.616 9.51501L1.71 6.74501L5.762 6.16901C5.8459 6.15634 5.92548 6.12352 5.99393 6.07337C6.06237 6.02321 6.11764 5.95721 6.155 5.88101L8 2.22301L9.847 5.88101C9.88435 5.95721 9.93962 6.02321 10.0081 6.07337C10.0765 6.12352 10.1561 6.15634 10.24 6.16901L14.292 6.74401L11.386 9.51401C11.3194 9.57851 11.2697 9.6584 11.2413 9.74665C11.2128 9.83489 11.2066 9.92877 11.223 10.02L11.917 13.977L8.231 12.083C8.15972 12.0463 8.08069 12.0271 8.0005 12.0271C7.9203 12.0271 7.84227 12.0463 7.771 12.083Z" fill="#FAFF00"/>
</g>
<defs>
<clipPath id="clip0_2_206">
<rect width="16" height="16" fill="white"/>
</clipPath>
</defs>
</svg>
